HIERARCHY
ROOT joint_Root
{
	OFFSET 0.0 0.0 0.0
	CHANNELS 6 Xposition Yposition Zposition Zrotation Xrotation Yrotation 
	JOINT Hips
	{
		OFFSET 4.5925 91.4895 -427.239
		CHANNELS 6 Xposition Yposition Zposition Zrotation Xrotation Yrotation 
		JOINT Spine
		{
			OFFSET 15.7357 0.0 0.0
			CHANNELS 6 Xposition Yposition Zposition Zrotation Xrotation Yrotation 
			JOINT Chest
			{
				OFFSET 8.98455 -0.406207 0.0
				CHANNELS 6 Xposition Yposition Zposition Zrotation Xrotation Yrotation 
				JOINT Neck
				{
					OFFSET 16.3773 0.0 0.0
					CHANNELS 6 Xposition Yposition Zposition Zrotation Xrotation Yrotation 
					JOINT Head
					{
						OFFSET 6.45672 0.0 0.0
						CHANNELS 6 Xposition Yposition Zposition Zrotation Xrotation Yrotation 
						End Site
						{
							OFFSET 0.0 0.0 0.0
						}
					}
				}
				JOINT Shoulder_L
				{
					OFFSET 12.9942 -0.242716 4.98039
					CHANNELS 6 Xposition Yposition Zposition Zrotation Xrotation Yrotation 
					JOINT UpperArm_L
					{
						OFFSET 5.34809 0.0 0.0
						CHANNELS 6 Xposition Yposition Zposition Zrotation Xrotation Yrotation 
						JOINT LowerArm_L
						{
							OFFSET 24.3286 1.87007e-05 0.0
							CHANNELS 6 Xposition Yposition Zposition Zrotation Xrotation Yrotation 
							JOINT Hand_L
							{
								OFFSET 22.2916 0.0 0.0
								CHANNELS 6 Xposition Yposition Zposition Zrotation Xrotation Yrotation 
								End Site
								{
									OFFSET 0.0 0.0 0.0
								}
							}
						}
					}
				}
				JOINT Shoulder_R
				{
					OFFSET 12.9945 -0.242716 -4.98039
					CHANNELS 6 Xposition Yposition Zposition Zrotation Xrotation Yrotation 
					JOINT UpperArm_R
					{
						OFFSET -5.34813 0.0 0.0
						CHANNELS 6 Xposition Yposition Zposition Zrotation Xrotation Yrotation 
						JOINT LowerArm_R
						{
							OFFSET -24.3289 0.000322201 0.0
							CHANNELS 6 Xposition Yposition Zposition Zrotation Xrotation Yrotation 
							JOINT Hand_R
							{
								OFFSET -22.2915 -0.000108084 0.0
								CHANNELS 6 Xposition Yposition Zposition Zrotation Xrotation Yrotation 
								End Site
								{
									OFFSET 0.0 0.0 0.0
								}
							}
						}
					}
				}
			}
		}
		JOINT UpperLeg_L
		{
			OFFSET -2.19248 -6.46944 0.0
			CHANNELS 6 Xposition Yposition Zposition Zrotation Xrotation Yrotation 
			JOINT LowerLeg_L
			{
				OFFSET 39.0811 0.0 -1.23785e-05
				CHANNELS 6 Xposition Yposition Zposition Zrotation Xrotation Yrotation 
				JOINT Foot_L
				{
					OFFSET 40.9854 0.0 -1.26872e-05
					CHANNELS 6 Xposition Yposition Zposition Zrotation Xrotation Yrotation 
					JOINT Toes_L
					{
						OFFSET 11.7543 0.0 0.0
						CHANNELS 6 Xposition Yposition Zposition Zrotation Xrotation Yrotation 
						End Site
						{
							OFFSET 0.0 0.0 0.0
						}
					}
				}
			}
		}
		JOINT UpperLeg_R
		{
			OFFSET -2.19251 6.46944 0.0
			CHANNELS 6 Xposition Yposition Zposition Zrotation Xrotation Yrotation 
			JOINT LowerLeg_R
			{
				OFFSET -39.0811 -0.00228153 -0.0401928
				CHANNELS 6 Xposition Yposition Zposition Zrotation Xrotation Yrotation 
				JOINT Foot_R
				{
					OFFSET -40.9854 0.0 0.0
					CHANNELS 6 Xposition Yposition Zposition Zrotation Xrotation Yrotation 
					JOINT Toes_R
					{
						OFFSET -11.7543 0.0 0.0
						CHANNELS 6 Xposition Yposition Zposition Zrotation Xrotation Yrotation 
						End Site
						{
							OFFSET 0.0 0.0 0.0
						}
					}
				}
			}
		}
	}
}
MOTION
Frames:	7
Frame Time:	0.0333333
0.000000 0.000000 0.000000 0.000000 0.000000 -0.000000 133.235000 89.693300 -10.963300 89.725000 4.785260 2.597640 15.735700 0.000005 -0.000001 93.354800 84.147800 -92.878500 8.984550 -0.406207 -0.000000 3.915970 0.667957 0.928838 16.377300 -0.000001 -0.000001 0.137841 -6.851900 3.385520 6.456720 -0.000001 -0.000000 -3.369540 -8.627080 6.042460 12.994200 -0.242716 4.980390 -90.838000 2.667220 -72.551200 5.348090 -0.000007 -0.000001 -69.022400 34.854900 -8.623360 24.328600 0.000019 0.000005 8.923550 14.857000 -31.485600 22.291600 -0.000001 0.000005 10.945800 5.325010 -0.635398 12.994500 -0.242716 -4.980390 88.271300 9.436540 -79.569900 -5.348130 -0.000001 -0.000004 -65.212600 26.816400 -8.708540 -24.328900 0.000322 -0.000009 1.044190 3.848060 -15.214000 -22.291500 -0.000108 -0.000004 15.600900 5.336290 -0.970505 -2.192480 -6.469440 -0.000000 -178.152000 -1.955030 -19.065600 39.081100 -0.000007 -0.000012 0.000116 -0.000064 59.225200 40.985400 -0.000006 -0.000013 3.088650 -4.285330 -62.495500 11.754300 -0.000000 0.000003 -0.007856 -0.086864 -20.113800 -2.192510 6.469440 -0.000001 179.248000 16.541600 176.303000 -39.081100 -0.002282 -0.040193 0.041669 -0.051929 36.468900 -40.985400 0.000008 0.000006 9.479910 6.009090 -74.753100 -11.754300 -0.000006 -0.000006 -0.008161 -0.089338 -20.211200
0.000000 0.000000 0.000000 0.000000 0.000000 -0.000000 133.841000 90.341300 -8.519820 89.756100 3.537160 1.620000 15.735700 0.000005 -0.000001 97.754000 84.368300 -97.408800 8.984550 -0.406207 -0.000000 3.390910 1.504690 0.645114 16.377300 -0.000001 -0.000001 -0.567209 -6.372560 3.156630 6.456720 -0.000001 -0.000000 -3.908130 -8.244250 5.872270 12.994200 -0.242716 4.980390 -90.948900 2.987620 -72.371500 5.348090 -0.000007 -0.000001 -70.915000 34.433000 -5.555740 24.328600 0.000019 0.000005 8.256790 19.251800 -23.762900 22.291600 -0.000001 0.000005 8.693810 5.293620 0.254569 12.994500 -0.242716 -4.980390 88.428400 9.002010 -80.054600 -5.348130 -0.000001 -0.000004 -64.663800 27.978700 -9.215210 -24.328900 0.000322 -0.000009 0.704419 2.143690 -18.226500 -22.291500 -0.000108 -0.000004 15.274100 5.361360 -1.721130 -2.192480 -6.469440 -0.000000 -178.729000 -4.022540 -20.672700 39.081100 -0.000007 -0.000012 0.010323 -0.008634 50.080300 40.985400 -0.000006 -0.000013 1.812150 -3.221230 -63.138600 11.754300 -0.000000 0.000003 -0.007830 -0.086645 -20.104900 -2.192510 6.469440 -0.000001 178.126000 16.957600 177.659000 -39.081100 -0.002282 -0.040193 0.036892 -0.048365 34.789100 -40.985400 0.000008 0.000006 9.344450 8.803220 -72.487700 -11.754300 -0.000006 -0.000006 -0.018081 -0.156419 -22.960400
0.000000 0.000000 0.000000 0.000000 0.000000 -0.000000 134.467000 90.672000 -6.037300 89.643900 2.084870 0.752232 15.735700 0.000005 -0.000001 101.103000 84.457000 -100.847000 8.984550 -0.406207 -0.000000 3.109640 2.122270 0.454158 16.377300 -0.000001 -0.000001 -1.445750 -5.861260 2.860090 6.456720 -0.000001 -0.000000 -4.815570 -7.761130 5.363390 12.994200 -0.242716 4.980390 -91.004000 3.147350 -72.297700 5.348090 -0.000007 -0.000001 -73.056800 31.882300 -2.422160 24.328600 0.000019 0.000005 7.229010 25.644900 -16.342800 22.291600 -0.000001 0.000005 7.543390 5.238970 1.722770 12.994500 -0.242716 -4.980390 88.553000 8.717740 -80.537800 -5.348130 -0.000001 -0.000004 -63.345100 29.564600 -10.417800 -24.328900 0.000322 -0.000009 0.410928 1.046330 -21.506600 -22.291500 -0.000108 -0.000004 15.269700 5.381420 -2.343310 -2.192480 -6.469440 -0.000000 -179.293000 -6.539190 -22.356200 39.081100 -0.000007 -0.000012 0.015912 -0.017697 41.955800 40.985400 -0.000006 -0.000013 2.182860 -3.178070 -62.409700 11.754300 -0.000000 0.000003 -0.004029 -0.051746 -18.681700 -2.192510 6.469440 -0.000001 177.117000 17.163000 178.788000 -39.081100 -0.002282 -0.040193 0.035977 -0.048895 33.760700 -40.985400 0.000008 0.000006 9.640220 11.300900 -71.090000 -11.754300 -0.000006 -0.000006 -0.028383 -0.209952 -25.170500
0.000000 0.000000 0.000000 0.000000 0.000000 -0.000000 135.070000 90.625500 -3.353760 89.347100 0.679077 0.010572 15.735700 0.000005 -0.000001 102.692000 84.501300 -102.478000 8.984550 -0.406207 -0.000000 2.960570 2.404900 0.365390 16.377300 -0.000001 -0.000001 -2.357480 -5.428680 2.587780 6.456720 -0.000001 -0.000000 -5.731450 -7.196600 4.770830 12.994200 -0.242716 4.980390 -90.899900 2.835790 -72.386600 5.348090 -0.000007 -0.000001 -75.253100 27.310700 0.786876 24.328600 0.000019 0.000005 4.998050 31.134700 -9.603530 22.291600 -0.000001 0.000005 7.596280 5.153180 3.866880 12.994500 -0.242716 -4.980390 88.656900 8.438930 -80.923400 -5.348130 -0.000001 -0.000004 -61.706200 31.048700 -12.185200 -24.328900 0.000322 -0.000009 0.298037 0.652090 -24.645400 -22.291500 -0.000108 -0.000004 15.494600 5.396090 -2.810670 -2.192480 -6.469440 -0.000000 -179.731000 -8.504050 -24.375500 39.081100 -0.000007 -0.000012 0.019651 -0.025573 37.537200 40.985400 -0.000006 -0.000013 3.139900 -5.111750 -61.076800 11.754300 -0.000000 0.000003 -0.004512 -0.056667 -18.882100 -2.192510 6.469440 -0.000001 176.278000 17.265200 -179.896000 -39.081100 -0.002282 -0.040193 0.034417 -0.047897 33.013900 -40.985400 0.000008 0.000006 9.778970 13.148800 -70.493400 -11.754300 -0.000006 -0.000006 -0.039307 -0.257335 -27.141900
0.000000 0.000000 0.000000 0.000000 0.000000 -0.000000 135.591000 90.226900 -0.439180 88.752300 -0.708206 -0.653416 15.735700 0.000005 -0.000001 103.308000 84.513000 -103.072000 8.984550 -0.406207 -0.000000 2.910570 2.513520 0.407736 16.377300 -0.000001 -0.000001 -3.161390 -5.034700 2.457330 6.456720 -0.000001 -0.000000 -6.751550 -6.643010 4.258350 12.994200 -0.242716 4.980390 -90.712400 2.278700 -72.633700 5.348090 -0.000007 -0.000001 -76.748100 22.351200 3.813720 24.328600 0.000019 0.000005 2.258320 32.866500 -4.156360 22.291600 -0.000001 0.000005 7.779150 5.060330 6.008000 12.994500 -0.242716 -4.980390 88.730000 8.223610 -81.189600 -5.348130 -0.000001 -0.000004 -60.054400 32.014000 -14.217800 -24.328900 0.000322 -0.000009 0.111137 0.215950 -27.493000 -22.291500 -0.000108 -0.000004 15.776800 5.407500 -3.182350 -2.192480 -6.469440 -0.000000 -179.192000 -9.717710 -25.709800 39.081100 -0.000007 -0.000012 0.018724 -0.027627 34.126000 40.985400 -0.000006 -0.000013 2.509450 -3.114630 -61.770500 11.754300 -0.000000 0.000003 -0.005110 -0.062535 -19.121300 -2.192510 6.469440 -0.000001 175.808000 16.908400 -178.450000 -39.081100 -0.002282 -0.040193 0.031850 -0.044669 32.587600 -40.985400 0.000008 0.000006 9.913050 14.356100 -70.565800 -11.754300 -0.000006 -0.000006 -0.048875 -0.293725 -28.667300
0.000000 0.000000 0.000000 0.000000 0.000000 -0.000000 136.257000 89.667100 2.706030 88.806100 -1.951190 -1.381200 15.735700 0.000005 -0.000001 102.759000 84.517300 -102.748000 8.984550 -0.406207 -0.000000 2.930580 2.418880 -0.038538 16.377300 -0.000001 -0.000001 -3.766190 -4.726790 2.484790 6.456720 -0.000001 -0.000000 -8.052510 -6.267240 3.908870 12.994200 -0.242716 4.980390 -90.636200 2.067170 -72.890400 5.348090 -0.000007 -0.000001 -77.060800 18.676100 6.315290 24.328600 0.000019 0.000005 0.380468 31.997500 -0.717535 22.291600 -0.000001 0.000005 6.954730 5.012800 7.047570 12.994500 -0.242716 -4.980390 88.734400 8.377770 -81.378200 -5.348130 -0.000001 -0.000004 -58.515500 31.898000 -16.029700 -24.328900 0.000322 -0.000009 0.088247 0.153396 -30.202800 -22.291500 -0.000108 -0.000004 15.937500 5.414520 -3.415290 -2.192480 -6.469440 -0.000000 -179.677000 -10.722200 -28.009500 39.081100 -0.000007 -0.000012 0.023802 -0.033591 35.319200 40.985400 -0.000006 -0.000013 4.557780 -1.566290 -59.708900 11.754300 -0.000000 0.000003 -0.465207 -0.566888 -14.144000 -2.192510 6.469440 -0.000001 174.599000 16.314200 -177.036000 -39.081100 -0.002282 -0.040193 0.027839 -0.038641 32.421700 -40.985400 0.000008 0.000006 9.861950 15.044200 -70.900900 -11.754300 -0.000006 -0.000006 -0.060171 -0.332331 -30.298100
0.000000 0.000000 0.000000 0.000000 0.000000 -0.000000 137.035000 88.818500 6.517060 88.408700 -3.371580 -1.583690 15.735700 0.000005 -0.000001 103.190000 84.424100 -103.239000 8.984550 -0.406207 -0.000000 3.095380 2.543990 -0.166414 16.377300 -0.000001 -0.000001 -4.092310 -4.512250 2.549280 6.456720 -0.000001 -0.000000 -8.699660 -5.988330 3.415320 12.994200 -0.242716 4.980390 -90.597400 1.957750 -73.028300 5.348090 -0.000007 -0.000001 -76.939300 17.306800 8.385500 24.328600 0.000019 0.000005 0.000071 31.033100 -0.000003 22.291600 -0.000001 0.000005 4.851730 5.018010 6.932620 12.994500 -0.242716 -4.980390 88.754300 8.306530 -81.440100 -5.348130 -0.000001 -0.000004 -58.415800 30.333100 -16.524800 -24.328900 0.000322 -0.000009 0.359777 0.553416 -33.100400 -22.291500 -0.000108 -0.000004 16.208400 5.417310 -3.508550 -2.192480 -6.469440 -0.000000 -179.311000 -10.913600 -28.950500 39.081100 -0.000007 -0.000012 0.042319 -0.046580 42.254100 40.985400 -0.000006 -0.000013 4.189700 -3.342420 -64.477400 11.754300 -0.000000 0.000003 -1.121660 -1.481940 -14.199400 -2.192510 6.469440 -0.000001 173.960000 14.312400 -175.346000 -39.081100 -0.002282 -0.040193 0.032657 -0.044821 33.228600 -40.985400 0.000008 0.000006 9.654660 14.338400 -70.744400 -11.754300 -0.000006 -0.000006 -0.082428 -0.398680 -33.135500
